<?xml version="1.0" encoding="UTF-8" standalone="no"?>
<!-- Created with Inkscape (http://www.inkscape.org/) -->

<svg
   version="1.1"
   id="svg2595"
   xml:space="preserve"
   width="682.66669"
   height="682.66669"
   viewBox="0 0 682.66669 682.66669"
   xmlns="http://www.w3.org/2000/svg"
   xmlns:svg="http://www.w3.org/2000/svg"><defs
     id="defs2599"><clipPath
       clipPathUnits="userSpaceOnUse"
       id="clipPath2609"><path
         d="M 0,512 H 512 V 0 H 0 Z"
         id="path2607" /></clipPath></defs><g
     id="g2601"
     transform="matrix(1.3333333,0,0,-1.3333333,0,682.66667)"><g
       id="g2603"><g
         id="g2605"
         clip-path="url(#clipPath2609)"><g
           id="g2611"
           transform="translate(78.1089,85.8623)"><path
             d="m 0,0 c 0,-10.462 -8.48,-18.942 -18.942,-18.942 -10.461,0 -18.941,8.48 -18.941,18.942 0,10.461 8.48,18.941 18.941,18.941 C -8.48,18.941 0,10.461 0,0 Z"
             style="fill:none;stroke:#000000;stroke-width:15;stroke-linecap:round;stroke-linejoin:round;stroke-miterlimit:10;stroke-dasharray:none;stroke-opacity:1"
             id="path2613" /></g><g
           id="g2615"
           transform="translate(460.7319,231.084)"><path
             d="M 0,0 H -87.841"
             style="fill:none;stroke:#000000;stroke-width:15;stroke-linecap:round;stroke-linejoin:round;stroke-miterlimit:10;stroke-dasharray:none;stroke-opacity:1"
             id="path2617" /></g><g
           id="g2619"
           transform="translate(455.8213,164.6729)"><path
             d="M 0,0 H -82.931"
             style="fill:none;stroke:#000000;stroke-width:15;stroke-linecap:round;stroke-linejoin:round;stroke-miterlimit:10;stroke-dasharray:none;stroke-opacity:1"
             id="path2621" /></g><g
           id="g2623"
           transform="translate(427.5259,98.2617)"><path
             d="M 0,0 H -54.635"
             style="fill:none;stroke:#000000;stroke-width:15;stroke-linecap:round;stroke-linejoin:round;stroke-miterlimit:10;stroke-dasharray:none;stroke-opacity:1"
             id="path2625" /></g><g
           id="g2627"
           transform="translate(274.0811,31.8506)"><path
             d="m 0,0 h 152.464 2.373 c 18.677,0 33.753,15.421 33.189,34.227 -0.545,18.173 -16.399,32.184 -34.581,32.184 h 27.64 c 18.619,0 34.21,15.237 33.854,33.853 -0.344,18.04 -15.076,32.558 -33.199,32.558 h 15.473 c 18.123,0 32.854,14.518 33.2,32.558 0.356,18.616 -15.236,33.853 -33.855,33.853 h -9.907 c 18.182,0 34.038,14.01 34.582,32.185 0.564,18.806 -14.512,34.227 -33.191,34.227 H 87.033"
             style="fill:none;stroke:#000000;stroke-width:15;stroke-linecap:round;stroke-linejoin:round;stroke-miterlimit:10;stroke-dasharray:none;stroke-opacity:1"
             id="path2629" /></g><g
           id="g2631"
           transform="translate(7.5005,194.1484)"><path
             d="m 0,0 v 81.855 c 0,5.523 4.477,10 10,10 h 83.333 c 5.523,0 10,-4.477 10,-10 v -229.084 c 0,-5.522 -4.477,-10 -10,-10 H 10 c -5.523,0 -10,4.478 -10,10 v 114.542"
             style="fill:none;stroke:#000000;stroke-width:15;stroke-linecap:round;stroke-linejoin:round;stroke-miterlimit:10;stroke-dasharray:none;stroke-opacity:1"
             id="path2633" /></g><g
           id="g2635"
           transform="translate(110.834,69.8242)"><path
             d="m 0,0 96.096,-37.974 h 34.465"
             style="fill:none;stroke:#000000;stroke-width:15;stroke-linecap:round;stroke-linejoin:round;stroke-miterlimit:10;stroke-dasharray:none;stroke-opacity:1"
             id="path2637" /></g><g
           id="g2639"
           transform="translate(328.4272,297.4951)"><path
             d="m 0,0 h -36.786 l 14.536,132.757 c 2.917,26.632 -17.94,49.897 -44.732,49.897 -11.542,0 -21.024,-8.956 -21.872,-20.467 C -99.376,19.407 -217.593,-44.395 -217.593,-44.395"
             style="fill:none;stroke:#000000;stroke-width:15;stroke-linecap:round;stroke-linejoin:round;stroke-miterlimit:10;stroke-dasharray:none;stroke-opacity:1"
             id="path2641" /></g></g></g></g></svg>
