<svg id="Layer_1" enable-background="new 0 0 64 64" height="64" viewBox="0 0 64 64" width="64" xmlns="http://www.w3.org/2000/svg"><g><g><g><path d="m63.5 32c0 10.4-8.4 18.9-18.9 18.9-10.4 0-18.9-8.5-18.9-18.9 0-10.4 8.4-18.9 18.8-18.9 10.6 0 19 8.5 19 18.9z" fill="#ffb600"/></g></g><g><g><path d="m44.6 13.1c10.4 0 18.9 8.5 18.9 18.9 0 10.4-8.4 18.9-18.9 18.9-10.4 0-18.9-8.5-18.9-18.9" fill="#f7981d"/></g></g><g><g><path d="m44.6 13.1c10.4 0 18.9 8.5 18.9 18.9 0 10.4-8.4 18.9-18.9 18.9" fill="#ff8500"/></g></g><g><g><path d="m19.2 13.1c-10.3.1-18.7 8.5-18.7 18.9s8.4 18.9 18.9 18.9c4.9 0 9.3-1.9 12.7-4.9.7-.6 1.3-1.3 1.9-2h-3.9c-.5-.6-1-1.3-1.4-1.9h6.7c.4-.6.8-1.3 1.1-2h-8.9c-.3-.6-.6-1.3-.8-2h10.4c.6-1.9 1-3.9 1-6 0-1.4-.2-2.7-.4-4h-11.6c.1-.7.3-1.3.5-2h10.4c-.2-.7-.5-1.4-.8-2h-8.8c.3-.7.7-1.3 1.1-2h6.7c-.4-.7-.9-1.4-1.5-2h-3.7c.6-.7 1.2-1.3 1.9-1.9-3.3-3.1-7.8-4.9-12.7-4.9 0-.2 0-.2-.1-.2z" fill="#ff5050"/></g></g><g><g><path d="m.5 32c0 10.4 8.4 18.9 18.9 18.9 4.9 0 9.3-1.9 12.7-4.9.7-.6 1.3-1.3 1.9-2h-3.9c-.5-.6-1-1.3-1.4-1.9h6.7c.4-.6.8-1.3 1.1-2h-8.9c-.3-.6-.6-1.3-.8-2h10.4c.6-1.9 1-3.9 1-6 0-1.4-.2-2.7-.4-4h-11.6c.1-.7.3-1.3.5-2h10.4c-.2-.7-.5-1.4-.8-2h-8.8c.3-.7.7-1.3 1.1-2h6.7c-.4-.7-.9-1.4-1.5-2h-3.7c.6-.7 1.2-1.3 1.9-1.9-3.3-3.1-7.8-4.9-12.7-4.9h-.1" fill="#e52836"/></g></g><g><g><path d="m19.4 50.9c4.9 0 9.3-1.9 12.7-4.9.7-.6 1.3-1.3 1.9-2h-3.9c-.5-.6-1-1.3-1.4-1.9h6.7c.4-.6.8-1.3 1.1-2h-8.9c-.3-.6-.6-1.3-.8-2h10.4c.6-1.9 1-3.9 1-6 0-1.4-.2-2.7-.4-4h-11.6c.1-.7.3-1.3.5-2h10.4c-.2-.7-.5-1.4-.8-2h-8.8c.3-.7.7-1.3 1.1-2h6.7c-.4-.7-.9-1.4-1.5-2h-3.7c.6-.7 1.2-1.3 1.9-1.9-3.3-3.1-7.8-4.9-12.7-4.9h-.1" fill="#cb2026"/></g></g><g><g><g><path d="m26.1 36.8.3-1.7c-.1 0-.3.1-.5.1-.7 0-.8-.4-.7-.6l.6-3.5h1.1l.3-1.9h-1l.2-1.2h-2s-1.2 6.6-1.2 7.4c0 1.2.7 1.7 1.6 1.7.6 0 1.1-.2 1.3-.3z" fill="#fff"/></g></g><g><g><path d="m26.8 33.6c0 2.8 1.9 3.5 3.5 3.5 1.5 0 2.1-.3 2.1-.3l.4-1.9s-1.1.5-2.1.5c-2.2 0-1.8-1.6-1.8-1.6h4.1s.3-1.3.3-1.8c0-1.3-.7-2.9-2.9-2.9-2.1-.2-3.6 2-3.6 4.5zm3.5-2.9c1.1 0 .9 1.3.9 1.4h-2.2c0-.1.2-1.4 1.3-1.4z" fill="#fff"/></g></g><g><g><path d="m43 36.8.4-2.2s-1 .5-1.7.5c-1.4 0-2-1.1-2-2.3 0-2.4 1.2-3.7 2.6-3.7 1 0 1.8.6 1.8.6l.3-2.1s-1.2-.5-2.3-.5c-2.3 0-4.6 2-4.6 5.8 0 2.5 1.2 4.2 3.6 4.2.8 0 1.9-.3 1.9-.3z" fill="#fff"/></g></g><g><g><path d="m15.1 28.9c-1.4 0-2.4.4-2.4.4l-.3 1.7s.9-.4 2.2-.4c.7 0 1.3.1 1.3.7 0 .4-.1.5-.1.5s-.6 0-.9 0c-1.7 0-3.6.7-3.6 3 0 1.8 1.2 2.2 1.9 2.2 1.4 0 2-.9 2.1-.9l-.1.8h1.8l.8-5.5c0-2.4-2-2.5-2.7-2.5zm.4 4.5c0 .3-.2 1.9-1.4 1.9-.6 0-.8-.5-.8-.8 0-.5.3-1.2 1.8-1.2.3.1.4.1.4.1z" fill="#fff"/></g></g><g><g><path d="m19.7 37c.5 0 3 .1 3-2.6 0-2.5-2.4-2-2.4-3 0-.5.4-.7 1.1-.7.3 0 1.4.1 1.4.1l.3-1.8s-.7-.2-1.9-.2c-1.5 0-3 .6-3 2.6 0 2.3 2.5 2.1 2.5 3 0 .6-.7.7-1.2.7-.9 0-1.8-.3-1.8-.3l-.3 1.8c.1.2.6.4 2.3.4z" fill="#fff"/></g></g><g><g><path d="m59.6 27.3-.4 2.7s-.8-1-1.9-1c-1.8 0-3.4 2.2-3.4 4.8 0 1.6.8 3.3 2.5 3.3 1.2 0 1.9-.8 1.9-.8l-.1.7h2l1.5-9.6zm-.9 5.3c0 1.1-.5 2.5-1.6 2.5-.7 0-1.1-.6-1.1-1.6 0-1.6.7-2.6 1.6-2.6.7 0 1.1.5 1.1 1.7z" fill="#fff"/></g></g><g><g><path d="m4.2 36.9 1.2-7.2.2 7.2h1.4l2.6-7.2-1.1 7.2h2.1l1.6-9.6h-3.3l-2 5.9-.1-5.9h-2.9l-1.6 9.6z" fill="#fff"/></g></g><g><g><path d="m35.2 36.9c.6-3.3.7-6 2.1-5.5.2-1.3.5-1.8.7-2.3 0 0-.1 0-.4 0-.9 0-1.6 1.2-1.6 1.2l.2-1.1h-1.9l-1.3 7.8h2.2z" fill="#fff"/></g></g><g><g><path d="m47.6 28.9c-1.4 0-2.4.4-2.4.4l-.3 1.7s.9-.4 2.2-.4c.7 0 1.3.1 1.3.7 0 .4-.1.5-.1.5s-.6 0-.9 0c-1.7 0-3.6.7-3.6 3 0 1.8 1.2 2.2 1.9 2.2 1.4 0 2-.9 2.1-.9l-.1.8h1.8l.8-5.5c.1-2.4-2-2.5-2.7-2.5zm.5 4.5c0 .3-.2 1.9-1.4 1.9-.6 0-.8-.5-.8-.8 0-.5.3-1.2 1.8-1.2.3.1.3.1.4.1z" fill="#fff"/></g></g><g><g><path d="m52 36.9c.6-3.3.7-6 2.1-5.5.2-1.3.5-1.8.7-2.3 0 0-.1 0-.4 0-.9 0-1.6 1.2-1.6 1.2l.2-1.1h-1.9l-1.3 7.8h2.2z" fill="#fff"/></g></g></g><g><g><g><path d="m23 35.4c0 1.2.7 1.7 1.6 1.7.7 0 1.3-.2 1.5-.3l.3-1.7c-.1 0-.3.1-.5.1-.7 0-.8-.4-.7-.6l.6-3.5h1.1l.3-1.9h-1l.2-1.2" fill="#dce5e5"/></g></g><g><g><path d="m27.8 33.6c0 2.8.9 3.5 2.5 3.5 1.5 0 2.1-.3 2.1-.3l.4-1.9s-1.1.5-2.1.5c-2.2 0-1.8-1.6-1.8-1.6h4.1s.3-1.3.3-1.8c0-1.3-.7-2.9-2.9-2.9-2.1-.2-2.6 2-2.6 4.5zm2.5-2.9c1.1 0 1.3 1.3 1.3 1.4h-2.6c0-.1.2-1.4 1.3-1.4z" fill="#dce5e5"/></g></g><g><g><path d="m43 36.8.4-2.2s-1 .5-1.7.5c-1.4 0-2-1.1-2-2.3 0-2.4 1.2-3.7 2.6-3.7 1 0 1.8.6 1.8.6l.3-2.1s-1.2-.5-2.3-.5c-2.3 0-3.6 2-3.6 5.8 0 2.5.2 4.2 2.6 4.2.8 0 1.9-.3 1.9-.3z" fill="#dce5e5"/></g></g><g><g><path d="m12.4 31.1s.9-.4 2.2-.4c.7 0 1.3.1 1.3.7 0 .4-.1.5-.1.5s-.6 0-.9 0c-1.7 0-3.6.7-3.6 3 0 1.8 1.2 2.2 1.9 2.2 1.4 0 2-.9 2.1-.9l-.1.8h1.8l.8-5.5c0-2.3-2-2.4-2.8-2.4m1.5 4.3c0 .3-1.2 1.9-2.4 1.9-.6 0-.8-.5-.8-.8 0-.5.3-1.2 1.8-1.2.3.1 1.4.1 1.4.1z" fill="#dce5e5"/></g></g><g><g><path d="m17.5 36.8s.6.2 2.3.2c.5 0 3 .1 3-2.6 0-2.5-2.4-2-2.4-3 0-.5.4-.7 1.1-.7.3 0 1.4.1 1.4.1l.3-1.8s-.7-.2-1.9-.2c-1.5 0-2 .6-2 2.6 0 2.3 1.5 2.1 1.5 3 0 .6-.7.7-1.2.7" fill="#dce5e5"/></g></g><g><g><path d="m59.2 30s-.8-1-1.9-1c-1.8 0-2.4 2.2-2.4 4.8 0 1.6-.2 3.3 1.5 3.3 1.2 0 1.9-.8 1.9-.8l-.1.7h2l1.5-9.6m-2.6 5.2c0 1.1-.9 2.5-2 2.5-.7 0-1.1-.6-1.1-1.6 0-1.6.7-2.6 1.6-2.6.7 0 1.5.5 1.5 1.7z" fill="#dce5e5"/></g></g><g><g><path d="m4.2 36.9 1.2-7.2.2 7.2h1.4l2.6-7.2-1.1 7.2h2.1l1.6-9.6h-2.5l-2.8 5.9-.1-5.9h-1.1l-3.4 9.6z" fill="#dce5e5"/></g></g><g><g><path d="m33.1 36.9h2.1c.6-3.3.7-6 2.1-5.5.2-1.3.5-1.8.7-2.3 0 0-.1 0-.4 0-.9 0-1.6 1.2-1.6 1.2l.2-1.1" fill="#dce5e5"/></g></g><g><g><path d="m44.9 31.1s.9-.4 2.2-.4c.7 0 1.3.1 1.3.7 0 .4-.1.5-.1.5s-.6 0-.9 0c-1.7 0-3.6.7-3.6 3 0 1.8 1.2 2.2 1.9 2.2 1.4 0 2-.9 2.1-.9l-.1.8h1.8l.8-5.5c0-2.3-2-2.4-2.8-2.4m1.5 4.3c0 .3-1.2 1.9-2.4 1.9-.6 0-.8-.5-.8-.8 0-.5.3-1.2 1.8-1.2.4.1 1.4.1 1.4.1z" fill="#dce5e5"/></g></g><g><g><path d="m49.9 36.9h2.1c.6-3.3.7-6 2.1-5.5.2-1.3.5-1.8.7-2.3 0 0-.1 0-.4 0-.9 0-1.6 1.2-1.6 1.2l.2-1.1" fill="#dce5e5"/></g></g></g></g></svg>