<?xml version="1.0" encoding="UTF-8" standalone="no"?>
<!-- Created with Inkscape (http://www.inkscape.org/) -->

<svg
   version="1.1"
   id="svg4455"
   xml:space="preserve"
   width="682.66669"
   height="682.66669"
   viewBox="0 0 682.66669 682.66669"
   xmlns="http://www.w3.org/2000/svg"
   xmlns:svg="http://www.w3.org/2000/svg"><defs
     id="defs4459"><clipPath
       clipPathUnits="userSpaceOnUse"
       id="clipPath4469"><path
         d="M 0,512 H 512 V 0 H 0 Z"
         id="path4467" /></clipPath></defs><g
     id="g4461"
     transform="matrix(1.3333333,0,0,-1.3333333,0,682.66667)"><g
       id="g4463"><g
         id="g4465"
         clip-path="url(#clipPath4469)"><g
           id="g4471"
           transform="translate(206.9297,31.8506)"><path
             d="m 0,0 h 219.616 2.372 c 18.677,0 31.754,15.421 31.19,34.227 -0.545,18.173 -14.4,32.184 -32.582,32.184 h 27.64 c 18.619,0 32.211,15.237 31.855,33.853 -0.345,18.04 -13.076,32.558 -31.199,32.558 h 15.473 c 18.122,0 30.853,14.518 31.199,32.558 0.356,18.616 -13.235,33.853 -31.855,33.853 h -9.907 c 18.182,0 32.038,14.01 32.582,32.185 0.565,18.806 -12.511,34.227 -31.19,34.227 H 84.711 l 12.537,132.756 c 2.916,26.632 -15.941,49.898 -42.733,49.898 -11.542,0 -21.023,-8.956 -21.871,-20.467 C 22.121,285.052 -96.096,221.25 -96.096,221.25 V 37.974 Z"
             style="fill:#fed2a4;fill-opacity:1;fill-rule:nonzero;stroke:none"
             id="path4473" /></g><g
           id="g4475"
           transform="translate(98.834,36.9199)"><path
             d="m 0,0 h -81.333 c -5.523,0 -10,4.478 -10,10 v 229.084 c 0,5.522 4.477,10 10,10 H 0 c 5.523,0 10,-4.478 10,-10 V 10 C 10,4.478 5.523,0 0,0"
             style="fill:#685e68;fill-opacity:1;fill-rule:nonzero;stroke:none"
             id="path4477" /></g><g
           id="g4479"
           transform="translate(100.834,286.0039)"><path
             d="m 0,0 h -27 c 5.523,0 10,-4.478 10,-10 v -229.084 c 0,-5.522 -4.477,-10 -10,-10 H 0 c 5.523,0 10,4.478 10,10 V -10 C 10,-4.478 5.523,0 0,0"
             style="fill:#554e56;fill-opacity:1;fill-rule:nonzero;stroke:none"
             id="path4481" /></g><g
           id="g4483"
           transform="translate(78.1089,85.8623)"><path
             d="m 0,0 c 0,-10.462 -8.48,-18.942 -18.942,-18.942 -10.461,0 -18.941,8.48 -18.941,18.942 0,10.461 8.48,18.941 18.941,18.941 C -8.48,18.941 0,10.461 0,0"
             style="fill:#fed402;fill-opacity:1;fill-rule:nonzero;stroke:none"
             id="path4485" /></g><g
           id="g4487"
           transform="translate(276.1777,430.252)"><path
             d="m 0,0 -11.501,-105.035 c -1.62,-14.796 9.967,-27.722 24.852,-27.722 h 2.112 L 30,0 c 2.916,26.632 -17.941,49.897 -44.733,49.897 -4.486,0 -8.652,-1.366 -12.13,-3.696 C -9.368,38.622 2.222,20.295 0,0"
             style="fill:#ffbd86;fill-opacity:1;fill-rule:nonzero;stroke:none"
             id="path4489" /></g><g
           id="g4491"
           transform="translate(130.834,266.3076)"><path
             d="m 0,0 c -12.004,-8.887 -20,-13.207 -20,-13.207 v -183.276 l 20,-7.904 z"
             style="fill:#ffbd86;fill-opacity:1;fill-rule:nonzero;stroke:none"
             id="path4493" /></g><g
           id="g4495"
           transform="translate(398.918,31.8506)"><path
             d="M 0,0 H 27.627 30 C 48.677,0 63.753,15.421 63.189,34.227 62.645,52.4 46.79,66.411 28.608,66.411 h 27.64 c 18.619,0 34.21,15.237 33.855,33.853 -0.346,18.04 -15.077,32.558 -33.2,32.558 h 15.473 c 18.123,0 32.854,14.518 33.2,32.558 0.356,18.616 -15.236,33.853 -33.856,33.853 h -9.906 c 18.182,0 34.038,14.01 34.582,32.185 0.564,18.806 -14.512,34.227 -33.19,34.227 h -30 c 18.678,0 33.754,-15.421 33.19,-34.227 -0.015,-0.506 -0.042,-1.008 -0.081,-1.507 -1.02,-13.187 -12.403,-23.178 -25.629,-23.178 H -24.87 c -4.107,0 -7.688,-3.165 -7.81,-7.27 -0.127,-4.247 3.278,-7.73 7.496,-7.73 h 75.025 c 13.408,0 24.813,-10.267 25.674,-23.647 0.057,-0.893 0.078,-1.796 0.061,-2.706 -0.01,-0.51 -0.032,-1.017 -0.064,-1.52 -0.86,-13.338 -12.298,-23.538 -25.663,-23.538 H -24.87 c -4.107,0 -7.688,-3.165 -7.81,-7.27 -0.127,-4.247 3.278,-7.73 7.496,-7.73 h 59.559 c 13.366,0 24.804,-10.2 25.664,-23.538 0.033,-0.504 0.054,-1.011 0.064,-1.52 0.017,-0.91 -0.004,-1.813 -0.061,-2.705 C 59.181,84.179 47.775,73.911 34.368,73.911 H -24.87 c -4.107,0 -7.688,-3.165 -7.81,-7.27 -0.127,-4.247 3.278,-7.73 7.496,-7.73 H 7.479 c 13.227,0 24.609,-9.989 25.629,-23.177 0.039,-0.499 0.066,-1.002 0.081,-1.507 C 33.753,15.421 18.677,0 0,0"
             style="fill:#ffbd86;fill-opacity:1;fill-rule:nonzero;stroke:none"
             id="path4497" /></g><g
           id="g4499"
           transform="translate(78.1089,85.8623)"><path
             d="m 0,0 c 0,-10.462 -8.48,-18.942 -18.942,-18.942 -10.461,0 -18.941,8.48 -18.941,18.942 0,10.461 8.48,18.941 18.941,18.941 C -8.48,18.941 0,10.461 0,0 Z"
             style="fill:none;stroke:#000000;stroke-width:15;stroke-linecap:round;stroke-linejoin:round;stroke-miterlimit:10;stroke-dasharray:none;stroke-opacity:1"
             id="path4501" /></g><g
           id="g4503"
           transform="translate(460.7319,231.084)"><path
             d="M 0,0 H -87.841"
             style="fill:none;stroke:#000000;stroke-width:15;stroke-linecap:round;stroke-linejoin:round;stroke-miterlimit:10;stroke-dasharray:none;stroke-opacity:1"
             id="path4505" /></g><g
           id="g4507"
           transform="translate(455.8213,164.6729)"><path
             d="M 0,0 H -82.931"
             style="fill:none;stroke:#000000;stroke-width:15;stroke-linecap:round;stroke-linejoin:round;stroke-miterlimit:10;stroke-dasharray:none;stroke-opacity:1"
             id="path4509" /></g><g
           id="g4511"
           transform="translate(427.5259,98.2617)"><path
             d="M 0,0 H -54.635"
             style="fill:none;stroke:#000000;stroke-width:15;stroke-linecap:round;stroke-linejoin:round;stroke-miterlimit:10;stroke-dasharray:none;stroke-opacity:1"
             id="path4513" /></g><g
           id="g4515"
           transform="translate(274.0811,31.8506)"><path
             d="m 0,0 h 152.464 2.373 c 18.677,0 33.753,15.421 33.189,34.227 -0.545,18.173 -16.399,32.184 -34.581,32.184 h 27.64 c 18.619,0 34.21,15.237 33.854,33.853 -0.344,18.04 -15.076,32.558 -33.199,32.558 h 15.473 c 18.123,0 32.854,14.518 33.2,32.558 0.356,18.616 -15.236,33.853 -33.855,33.853 h -9.907 c 18.182,0 34.038,14.01 34.582,32.185 0.564,18.806 -14.512,34.227 -33.191,34.227 H 87.033"
             style="fill:none;stroke:#000000;stroke-width:15;stroke-linecap:round;stroke-linejoin:round;stroke-miterlimit:10;stroke-dasharray:none;stroke-opacity:1"
             id="path4517" /></g><g
           id="g4519"
           transform="translate(7.5005,194.1484)"><path
             d="m 0,0 v 81.855 c 0,5.523 4.477,10 10,10 h 83.333 c 5.523,0 10,-4.477 10,-10 v -229.084 c 0,-5.522 -4.477,-10 -10,-10 H 10 c -5.523,0 -10,4.478 -10,10 v 114.542"
             style="fill:none;stroke:#000000;stroke-width:15;stroke-linecap:round;stroke-linejoin:round;stroke-miterlimit:10;stroke-dasharray:none;stroke-opacity:1"
             id="path4521" /></g><g
           id="g4523"
           transform="translate(110.834,69.8242)"><path
             d="m 0,0 96.096,-37.974 h 34.465"
             style="fill:none;stroke:#000000;stroke-width:15;stroke-linecap:round;stroke-linejoin:round;stroke-miterlimit:10;stroke-dasharray:none;stroke-opacity:1"
             id="path4525" /></g><g
           id="g4527"
           transform="translate(328.4272,297.4951)"><path
             d="m 0,0 h -36.786 l 14.536,132.757 c 2.917,26.632 -17.94,49.897 -44.732,49.897 -11.542,0 -21.024,-8.956 -21.872,-20.467 C -99.376,19.407 -217.593,-44.395 -217.593,-44.395"
             style="fill:none;stroke:#000000;stroke-width:15;stroke-linecap:round;stroke-linejoin:round;stroke-miterlimit:10;stroke-dasharray:none;stroke-opacity:1"
             id="path4529" /></g></g></g></g></svg>
